<svg id="グループ_4" data-name="グループ 4" xmlns="http://www.w3.org/2000/svg" xmlns:xlink="http://www.w3.org/1999/xlink" width="144.742" height="35.091" viewBox="0 0 144.742 35.091">
  <defs>
    <clipPath id="clip-path">
      <rect id="長方形_11" data-name="長方形 11" width="144.742" height="35.091" fill="#fff"/>
    </clipPath>
  </defs>
  <g id="グループ_3" data-name="グループ 3" clip-path="url(#clip-path)">
    <path id="パス_11" data-name="パス 11" d="M24.837,5.813c0,.048,4.587-5.67,4.6-5.67l.01,20.013L41.483,5.813c.609-.739,4.607-5.571,4.607-5.67v27.6H40.962V13.854L29.444,27.588s-5.106,5.868-5.085,5.868v-19.6L6.513,35.2,0,35.2Z" transform="translate(0 -0.106)" fill="#fff"/>
    <path id="パス_12" data-name="パス 12" d="M161.567,17.27l-3.66-3.437L144.073,0l-7.059.037h-7.848V5.054h12.865l12.327,12.327-12.28,12.28H109.4l-4.324,5.018H144.1V34.62l.059.059Z" transform="translate(-77.992 0)" fill="#fff"/>
    <path id="パス_13" data-name="パス 13" d="M347.359,87.536V79.7l-2.832,7.84h-1.46L340.211,79.7v7.833h-2.43V70.951h1.6l4.4,11.9,4.392-11.9h1.612V87.536Z" transform="translate(-250.71 -52.662)" fill="#fff"/>
    <path id="パス_14" data-name="パス 14" d="M349.358,88.505V77.843l-.1.662-3.612,10h-.737l-3.645-10-.087-.662V88.505h-1.4V72.952h.727l4.718,12.755.044.575.043-.575,4.707-12.755h.738V88.505Z" transform="translate(-252.195 -54.147)" fill="#fff"/>
    <rect id="長方形_7" data-name="長方形 7" width="2.431" height="16.585" transform="translate(101.594 18.289)" fill="#fff"/>
    <rect id="長方形_8" data-name="長方形 8" width="1.399" height="15.554" transform="translate(102.11 18.805)" fill="#fff"/>
    <path id="パス_15" data-name="パス 15" d="M420.239,87.536,416.02,80.9H414.9v6.638h-2.431V70.951h5.451a4.257,4.257,0,0,1,1.69.34,4.336,4.336,0,0,1,2.3,2.31,4.3,4.3,0,0,1,.339,1.694v1.258a4.294,4.294,0,0,1-.339,1.694,4.334,4.334,0,0,1-2.3,2.31,4.128,4.128,0,0,1-.807.252l4.275,6.726Zm-2.385-9a1.88,1.88,0,0,0,.765-.153,1.95,1.95,0,0,0,.625-.426,2.08,2.08,0,0,0,.426-.635,1.909,1.909,0,0,0,.153-.766V75.3a1.892,1.892,0,0,0-.153-.766,2.084,2.084,0,0,0-.426-.635,1.952,1.952,0,0,0-.624-.426,1.887,1.887,0,0,0-.766-.152H414.9v5.216Z" transform="translate(-306.145 -52.662)" fill="#fff"/>
    <path id="パス_16" data-name="パス 16" d="M422.006,88.505l-4.219-6.638h-1.92v6.638h-1.4V72.951H419.4a3.725,3.725,0,0,1,1.486.3,3.818,3.818,0,0,1,2.034,2.039,3.766,3.766,0,0,1,.3,1.491v1.258a3.765,3.765,0,0,1-.3,1.491,3.82,3.82,0,0,1-2.034,2.039,3.721,3.721,0,0,1-1.486.3l4.219,6.638Zm-.184-11.725a2.413,2.413,0,0,0-.2-.971,2.584,2.584,0,0,0-.531-.792,2.468,2.468,0,0,0-.786-.537,2.412,2.412,0,0,0-.971-.2h-3.471v6.248h3.471a2.408,2.408,0,0,0,.971-.2,2.476,2.476,0,0,0,.786-.537,2.585,2.585,0,0,0,.531-.792,2.413,2.413,0,0,0,.2-.971Z" transform="translate(-307.629 -54.146)" fill="#fff"/>
    <path id="パス_17" data-name="パス 17" d="M458.332,87.536V70.951h5.44a4.293,4.293,0,0,1,1.694.339,4.322,4.322,0,0,1,2.311,2.311,4.3,4.3,0,0,1,.339,1.694V83.2a4.249,4.249,0,0,1-.34,1.69,4.332,4.332,0,0,1-2.31,2.3,4.289,4.289,0,0,1-1.694.34Zm5.375-2.365a1.889,1.889,0,0,0,.766-.153,2.092,2.092,0,0,0,.635-.426,1.969,1.969,0,0,0,.425-.624,1.914,1.914,0,0,0,.153-.766V75.3a1.892,1.892,0,0,0-.153-.766,2.024,2.024,0,0,0-1.061-1.06,1.885,1.885,0,0,0-.766-.153h-2.944V85.171Z" transform="translate(-340.186 -52.662)" fill="#fff"/>
    <path id="パス_18" data-name="パス 18" d="M468.788,86.173a3.819,3.819,0,0,1-2.039,2.034,3.758,3.758,0,0,1-1.491.3h-4.924V72.951h4.924a3.763,3.763,0,0,1,1.491.3,3.8,3.8,0,0,1,2.039,2.039,3.765,3.765,0,0,1,.3,1.491v7.907a3.723,3.723,0,0,1-.3,1.486m-1.1-9.393a2.413,2.413,0,0,0-.2-.971,2.541,2.541,0,0,0-1.329-1.329,2.415,2.415,0,0,0-.971-.2h-3.46V87.171h3.46a2.415,2.415,0,0,0,.971-.2,2.587,2.587,0,0,0,.792-.532,2.467,2.467,0,0,0,.537-.786,2.412,2.412,0,0,0,.2-.971Z" transform="translate(-341.672 -54.146)" fill="#fff"/>
    <rect id="長方形_9" data-name="長方形 9" width="2.431" height="16.585" transform="translate(130.229 18.289)" fill="#fff"/>
    <rect id="長方形_10" data-name="長方形 10" width="1.399" height="15.554" transform="translate(130.744 18.805)" fill="#fff"/>
    <path id="パス_19" data-name="パス 19" d="M527.155,87.129a4.369,4.369,0,0,1-1.7-.338A4.5,4.5,0,0,1,523.08,84.5a4.034,4.034,0,0,1-.367-1.7V81.739l2.43-.4v1.452a1.727,1.727,0,0,0,.163.752,2.136,2.136,0,0,0,.459.638,2.172,2.172,0,0,0,.671.434,2.046,2.046,0,0,0,.8.156h.976a2.009,2.009,0,0,0,.788-.155,2.185,2.185,0,0,0,.667-.434,2.137,2.137,0,0,0,.459-.638,1.729,1.729,0,0,0,.162-.752v-.466a2.1,2.1,0,0,0-.243-1.071,2.481,2.481,0,0,0-.692-.75,4.964,4.964,0,0,0-1.066-.574q-.652-.258-1.341-.517c-.475-.178-.943-.377-1.392-.592a5.409,5.409,0,0,1-1.3-.869,4.056,4.056,0,0,1-.957-1.322,4.532,4.532,0,0,1-.362-1.9v-.293a4.257,4.257,0,0,1,.34-1.689,4.33,4.33,0,0,1,2.311-2.3,4.291,4.291,0,0,1,1.693-.339h1a4.257,4.257,0,0,1,1.69.34,4.349,4.349,0,0,1,2.3,2.3,4.26,4.26,0,0,1,.34,1.69v.84l-2.43.4V74.443a1.889,1.889,0,0,0-.153-.766,1.984,1.984,0,0,0-1.05-1.05,1.882,1.882,0,0,0-.766-.153h-.868a1.908,1.908,0,0,0-.765.153,2.084,2.084,0,0,0-.636.426,1.946,1.946,0,0,0-.425.624,1.882,1.882,0,0,0-.153.766v.293a1.86,1.86,0,0,0,.238.987,2.443,2.443,0,0,0,.692.721,5.428,5.428,0,0,0,1.075.574q.656.266,1.348.541c.475.189.943.4,1.391.626a5.634,5.634,0,0,1,1.3.9,4.145,4.145,0,0,1,.954,1.342,4.607,4.607,0,0,1,.361,1.9v.466a4.038,4.038,0,0,1-.367,1.7,4.5,4.5,0,0,1-2.373,2.293,4.371,4.371,0,0,1-1.7.338Z" transform="translate(-387.972 -52.038)" fill="#fff"/>
    <path id="パス_20" data-name="パス 20" d="M533.682,84.28a3.509,3.509,0,0,1-.32,1.486,3.99,3.99,0,0,1-2.1,2.034,3.845,3.845,0,0,1-1.5.3h-1.117a3.843,3.843,0,0,1-1.5-.3,3.992,3.992,0,0,1-2.1-2.034,3.5,3.5,0,0,1-.32-1.486v-.618l1.4-.228v.846a2.253,2.253,0,0,0,.211.971,2.629,2.629,0,0,0,.569.792,2.662,2.662,0,0,0,.83.537,2.571,2.571,0,0,0,.993.2h.976a2.531,2.531,0,0,0,.987-.2,2.675,2.675,0,0,0,.824-.537,2.636,2.636,0,0,0,.57-.792,2.253,2.253,0,0,0,.211-.971v-.467a2.586,2.586,0,0,0-.314-1.334,2.975,2.975,0,0,0-.836-.906,5.444,5.444,0,0,0-1.177-.634q-.656-.26-1.35-.52t-1.35-.575a4.89,4.89,0,0,1-1.177-.786,3.521,3.521,0,0,1-.835-1.155,4.006,4.006,0,0,1-.315-1.681v-.293a3.728,3.728,0,0,1,.3-1.486,3.82,3.82,0,0,1,2.039-2.034,3.765,3.765,0,0,1,1.491-.3h1a3.725,3.725,0,0,1,1.486.3,3.835,3.835,0,0,1,2.034,2.034,3.728,3.728,0,0,1,.3,1.486v.4l-1.4.228v-.629a2.419,2.419,0,0,0-.2-.971,2.5,2.5,0,0,0-1.318-1.318,2.412,2.412,0,0,0-.971-.2h-.868a2.411,2.411,0,0,0-.971.2,2.582,2.582,0,0,0-.792.532,2.47,2.47,0,0,0-.537.786,2.414,2.414,0,0,0-.2.971v.293a2.354,2.354,0,0,0,.314,1.258,2.946,2.946,0,0,0,.835.873,5.925,5.925,0,0,0,1.177.629q.656.266,1.35.542t1.351.607a5.107,5.107,0,0,1,1.177.814,3.621,3.621,0,0,1,.835,1.177,4.085,4.085,0,0,1,.315,1.692Z" transform="translate(-389.455 -53.522)" fill="#fff"/>
  </g>
</svg>
