<svg id="グループ_11" data-name="グループ 11" xmlns="http://www.w3.org/2000/svg" xmlns:xlink="http://www.w3.org/1999/xlink" width="306.783" height="222.076" viewBox="0 0 306.783 222.076">
  <defs>
    <clipPath id="clip-path">
      <rect id="長方形_23" data-name="長方形 23" width="306.783" height="222.076" fill="#fff"/>
    </clipPath>
  </defs>
  <g id="グループ_5" data-name="グループ 5" clip-path="url(#clip-path)">
    <path id="パス_24" data-name="パス 24" d="M91.17,20.957C91.162,21.133,108.008.144,108.045.144l.037,73.464,44.194-52.651C154.51,18.245,169.186.508,169.188.144V101.451H150.362V50.473l-42.28,50.417s-18.745,21.539-18.667,21.539V50.473L23.906,128.82,0,128.815Z" transform="translate(0 -0.008)" fill="#fff"/>
    <path id="パス_25" data-name="パス 25" d="M312.434,63.4,299,50.78,248.22,0,222.308.136H193.5V18.555h47.226l45.25,45.25L240.9,108.881H120.95L105.078,127.3H248.315v-.216l.216.216Z" transform="translate(-5.65 0)" fill="#fff"/>
    <path id="パス_26" data-name="パス 26" d="M86.232,230.4V201.612L75.837,230.4H70.475L60,201.638V230.4h-8.92V169.516h5.877L73.112,213.2l16.122-43.685h5.919V230.4Z" transform="translate(-2.746 -9.115)" fill="#fff"/>
    <path id="パス_27" data-name="パス 27" d="M88.232,228.61V189.472l-.359,2.429L74.615,228.61H71.908L58.53,191.9l-.319-2.429V228.61H53.076V171.516h2.667l17.319,46.822.16,2.11.159-2.11,17.28-46.822h2.707V228.61Z" transform="translate(-2.854 -9.223)" fill="#fff"/>
    <rect id="長方形_19" data-name="長方形 19" width="8.921" height="60.879" transform="translate(101.641 160.4)" fill="#fff"/>
    <rect id="長方形_20" data-name="長方形 20" width="5.136" height="57.094" transform="translate(103.533 162.292)" fill="#fff"/>
    <path id="パス_28" data-name="パス 28" d="M154.287,230.4,138.8,206.028h-4.115V230.4h-8.921v-60.88h20.008a15.607,15.607,0,0,1,6.2,1.249,15.916,15.916,0,0,1,8.459,8.481,15.75,15.75,0,0,1,1.246,6.218v4.619a15.742,15.742,0,0,1-1.246,6.217,15.919,15.919,0,0,1-8.458,8.481,15.179,15.179,0,0,1-2.962.927L164.7,230.4Zm-8.754-33.049a6.934,6.934,0,0,0,2.81-.56,7.253,7.253,0,0,0,2.292-1.563,7.614,7.614,0,0,0,1.562-2.332,7.017,7.017,0,0,0,.561-2.81v-4.619a6.923,6.923,0,0,0-.561-2.811,7.679,7.679,0,0,0-1.563-2.331,7.235,7.235,0,0,0-2.291-1.562,6.933,6.933,0,0,0-2.81-.56H134.684v19.149Z" transform="translate(-6.763 -9.115)" fill="#fff"/>
    <path id="パス_29" data-name="パス 29" d="M155.434,228.61l-15.488-24.367H132.9V228.61h-5.136v-57.1h18.116a13.675,13.675,0,0,1,5.454,1.1A14.014,14.014,0,0,1,158.8,180.1a13.825,13.825,0,0,1,1.095,5.475v4.619a13.821,13.821,0,0,1-1.095,5.475,14.022,14.022,0,0,1-7.466,7.485,13.658,13.658,0,0,1-5.454,1.095l15.488,24.367Zm-.677-43.04a8.857,8.857,0,0,0-.716-3.564,9.487,9.487,0,0,0-1.951-2.906,9.06,9.06,0,0,0-2.887-1.971,8.854,8.854,0,0,0-3.563-.717H132.9v22.934h12.74a8.839,8.839,0,0,0,3.563-.717,9.088,9.088,0,0,0,2.887-1.97,9.491,9.491,0,0,0,1.951-2.907,8.854,8.854,0,0,0,.716-3.564Z" transform="translate(-6.87 -9.223)" fill="#fff"/>
    <path id="パス_30" data-name="パス 30" d="M171.627,230.394V169.515H191.6a15.762,15.762,0,0,1,6.217,1.246,15.852,15.852,0,0,1,8.484,8.484,15.756,15.756,0,0,1,1.247,6.217v29.026a15.607,15.607,0,0,1-1.249,6.2,15.905,15.905,0,0,1-8.482,8.459,15.746,15.746,0,0,1-6.217,1.246Zm19.73-8.682a6.929,6.929,0,0,0,2.811-.561,7.634,7.634,0,0,0,2.331-1.563,7.194,7.194,0,0,0,1.562-2.291,7,7,0,0,0,.561-2.81V185.462a6.918,6.918,0,0,0-.561-2.81,7.435,7.435,0,0,0-3.894-3.894,6.93,6.93,0,0,0-2.81-.56H180.548v43.515Z" transform="translate(-9.229 -9.115)" fill="#fff"/>
    <path id="パス_31" data-name="パス 31" d="M204.663,220.05a14.02,14.02,0,0,1-7.486,7.466,13.8,13.8,0,0,1-5.474,1.095H173.628v-57.1H191.7a13.818,13.818,0,0,1,5.474,1.1,13.962,13.962,0,0,1,7.486,7.485,13.825,13.825,0,0,1,1.095,5.475v29.025a13.669,13.669,0,0,1-1.095,5.455m-4.041-34.48a8.858,8.858,0,0,0-.716-3.564,9.322,9.322,0,0,0-4.878-4.877,8.854,8.854,0,0,0-3.564-.717h-12.7v47.3h12.7a8.855,8.855,0,0,0,3.564-.717,9.485,9.485,0,0,0,2.907-1.951,9.07,9.07,0,0,0,1.971-2.887,8.851,8.851,0,0,0,.716-3.563Z" transform="translate(-9.336 -9.223)" fill="#fff"/>
    <rect id="長方形_21" data-name="長方形 21" width="8.921" height="60.879" transform="translate(206.753 160.4)" fill="#fff"/>
    <rect id="長方形_22" data-name="長方形 22" width="5.136" height="57.094" transform="translate(208.645 162.292)" fill="#fff"/>
    <path id="パス_32" data-name="パス 32" d="M252.311,231.146a16.053,16.053,0,0,1-6.247-1.241,16.533,16.533,0,0,1-8.71-8.419,14.8,14.8,0,0,1-1.348-6.247V211.36l8.921-1.452v5.331a6.346,6.346,0,0,0,.6,2.758,7.849,7.849,0,0,0,1.684,2.343,7.94,7.94,0,0,0,2.463,1.591,7.5,7.5,0,0,0,2.919.573h3.584a7.342,7.342,0,0,0,2.893-.571,8.015,8.015,0,0,0,2.45-1.593A7.814,7.814,0,0,0,263.2,218a6.332,6.332,0,0,0,.6-2.758v-1.713a7.689,7.689,0,0,0-.891-3.932,9.094,9.094,0,0,0-2.541-2.753,18.238,18.238,0,0,0-3.914-2.106q-2.394-.95-4.924-1.9c-1.743-.654-3.463-1.385-5.11-2.175a19.893,19.893,0,0,1-4.773-3.191,14.891,14.891,0,0,1-3.514-4.852,16.632,16.632,0,0,1-1.328-6.962v-1.075a15.609,15.609,0,0,1,1.249-6.2,15.916,15.916,0,0,1,8.482-8.458,15.756,15.756,0,0,1,6.217-1.246h3.663a15.608,15.608,0,0,1,6.2,1.249,15.958,15.958,0,0,1,8.456,8.455,15.619,15.619,0,0,1,1.249,6.2v3.083l-8.921,1.452v-4.535a6.931,6.931,0,0,0-.56-2.81,7.278,7.278,0,0,0-3.855-3.854,6.914,6.914,0,0,0-2.809-.561h-3.186a7.009,7.009,0,0,0-2.809.561,7.641,7.641,0,0,0-2.333,1.563,7.254,7.254,0,0,0-1.561,2.291,6.914,6.914,0,0,0-.56,2.81v1.075a6.839,6.839,0,0,0,.871,3.624,8.993,8.993,0,0,0,2.539,2.648,20.018,20.018,0,0,0,3.947,2.107q2.4.975,4.948,1.987c1.739.693,3.458,1.467,5.108,2.3a20.723,20.723,0,0,1,4.755,3.288,15.251,15.251,0,0,1,3.5,4.926,16.931,16.931,0,0,1,1.324,6.993v1.713a14.823,14.823,0,0,1-1.348,6.247,16.535,16.535,0,0,1-8.71,8.418,16.04,16.04,0,0,1-6.247,1.242Z" transform="translate(-12.691 -9.07)" fill="#fff"/>
    <path id="パス_33" data-name="パス 33" d="M270.933,215.346a12.88,12.88,0,0,1-1.174,5.455,14.646,14.646,0,0,1-7.724,7.465,14.113,14.113,0,0,1-5.515,1.095h-4.1a14.106,14.106,0,0,1-5.515-1.095,14.646,14.646,0,0,1-7.724-7.465,12.867,12.867,0,0,1-1.174-5.455v-2.269l5.136-.836v3.106a8.272,8.272,0,0,0,.776,3.564,9.729,9.729,0,0,0,5.136,4.877,9.439,9.439,0,0,0,3.644.717h3.583a9.291,9.291,0,0,0,3.623-.717,9.829,9.829,0,0,0,3.025-1.971,9.635,9.635,0,0,0,2.09-2.906,8.273,8.273,0,0,0,.777-3.564v-1.713a9.492,9.492,0,0,0-1.154-4.9,10.932,10.932,0,0,0-3.066-3.325,20.037,20.037,0,0,0-4.32-2.329q-2.409-.955-4.956-1.91t-4.957-2.11a17.948,17.948,0,0,1-4.32-2.887,12.928,12.928,0,0,1-3.066-4.241,14.711,14.711,0,0,1-1.155-6.171v-1.075a13.667,13.667,0,0,1,1.1-5.455,14.016,14.016,0,0,1,7.485-7.465,13.818,13.818,0,0,1,5.475-1.095h3.663a13.682,13.682,0,0,1,5.455,1.095,14.077,14.077,0,0,1,7.465,7.465,13.682,13.682,0,0,1,1.095,5.455v1.473L265.4,187v-2.31a8.861,8.861,0,0,0-.716-3.564,9.177,9.177,0,0,0-4.838-4.837,8.854,8.854,0,0,0-3.562-.717H253.1a8.858,8.858,0,0,0-3.563.717,9.487,9.487,0,0,0-2.906,1.951,9.081,9.081,0,0,0-1.971,2.886,8.861,8.861,0,0,0-.716,3.564v1.075a8.635,8.635,0,0,0,1.154,4.619,10.8,10.8,0,0,0,3.066,3.2,21.728,21.728,0,0,0,4.32,2.31q2.409.977,4.957,1.991t4.957,2.229a18.739,18.739,0,0,1,4.32,2.986,13.321,13.321,0,0,1,3.066,4.32,15.011,15.011,0,0,1,1.154,6.211Z" transform="translate(-12.798 -9.178)" fill="#fff"/>
  </g>
</svg>
