<?xml version="1.0" encoding="UTF-8"?>
<svg id="_レイヤー_2" data-name="レイヤー 2" xmlns="http://www.w3.org/2000/svg" xmlns:xlink="http://www.w3.org/1999/xlink" viewBox="0 0 386.67 93.16">
  <defs>
    <style>
      .cls-1 {
        fill: #036;
      }

      .cls-2 {
        fill: url(#_名称未設定グラデーション_28);
      }
    </style>
    <linearGradient id="_名称未設定グラデーション_28" data-name="名称未設定グラデーション 28" x1="284.56" y1="46.58" x2="-129.85" y2="46.58" gradientUnits="userSpaceOnUse">
      <stop offset=".26" stop-color="#036"/>
      <stop offset="1" stop-color="#fff"/>
    </linearGradient>
  </defs>
  <g id="_レイヤー_1-2" data-name="レイヤー 1">
    <g>
      <path class="cls-2" d="M64.66,88.53V36.5L17.29,93.16H0S65.93,15.15,65.93,15.15c0,.13,12.18-15.05,12.2-15.05l.03,53.13L110.13,15.15c1.62-1.96,12.23-14.79,12.23-15.05V73.36h-13.62V36.5l-30.58,36.46s-13.56,15.58-13.5,15.58ZM212.15,36.72L175.43,0l-18.74,.1h-20.83V13.42h34.15l32.72,32.72-32.6,32.6H83.38l-11.48,13.32h103.59v-.16l.16,.16,46.22-46.22-9.71-9.12Z"/>
      <g>
        <polygon class="cls-1" points="259 91.23 259 70.41 251.48 91.23 247.6 91.23 240.02 70.43 240.02 91.23 233.57 91.23 233.57 47.2 237.82 47.2 249.51 78.8 261.17 47.2 265.45 47.2 265.45 91.23 259 91.23"/>
        <path class="cls-1" d="M260.37,89.86v-28.3l-.26,1.76-9.59,26.55h-1.96l-9.67-26.55-.23-1.76v28.3h-3.71V48.57h1.93l12.53,33.86,.12,1.53,.12-1.53,12.5-33.86h1.96v41.29h-3.71Z"/>
        <rect class="cls-1" x="272.13" y="47.2" width="6.45" height="44.03"/>
        <path class="cls-1" d="M273.5,89.86V48.57h3.71v41.29h-3.71Z"/>
        <path class="cls-1" d="M305.31,91.23l-11.2-17.62h-2.98v17.62h-6.45V47.2h14.47c1.58,0,3.09,.3,4.48,.9,1.38,.6,2.61,1.42,3.65,2.46,1.04,1.04,1.87,2.28,2.46,3.67,.6,1.4,.9,2.92,.9,4.5v3.34c0,1.58-.3,3.09-.9,4.5-.6,1.39-1.42,2.63-2.47,3.67-1.04,1.04-2.27,1.87-3.65,2.46-.69,.3-1.4,.52-2.14,.67l11.35,17.85h-7.53Zm-6.33-23.9c.74,0,1.4-.13,2.03-.41,.63-.27,1.19-.65,1.66-1.13,.47-.48,.85-1.05,1.13-1.69,.27-.62,.41-1.3,.41-2.03v-3.34c0-.74-.13-1.4-.41-2.03-.28-.64-.66-1.2-1.13-1.69-.47-.48-1.03-.86-1.66-1.13-.63-.27-1.29-.41-2.03-.41h-7.85v13.85h7.85Z"/>
        <path class="cls-1" d="M306.06,89.86l-11.2-17.62h-5.1v17.62h-3.71V48.57h13.1c1.4,0,2.72,.26,3.94,.79,1.23,.53,2.3,1.25,3.23,2.17,.92,.92,1.65,2,2.17,3.24,.53,1.24,.79,2.56,.79,3.96v3.34c0,1.4-.26,2.72-.79,3.96-.53,1.24-1.25,2.32-2.17,3.24s-2,1.65-3.23,2.17c-1.23,.53-2.54,.79-3.94,.79l11.2,17.62h-4.29Zm-.49-31.13c0-.92-.17-1.78-.52-2.58-.35-.8-.82-1.5-1.41-2.1-.6-.6-1.29-1.08-2.09-1.43-.8-.35-1.66-.52-2.58-.52h-9.21v16.59h9.21c.92,0,1.78-.17,2.58-.52,.8-.35,1.49-.82,2.09-1.43,.59-.6,1.07-1.31,1.41-2.1,.35-.8,.52-1.66,.52-2.58v-3.34Z"/>
        <path class="cls-1" d="M316.07,91.23V47.2h14.44c1.58,0,3.09,.3,4.5,.9,1.39,.59,2.63,1.42,3.67,2.46,1.04,1.04,1.87,2.28,2.46,3.67,.6,1.4,.9,2.92,.9,4.5v20.99c0,1.58-.3,3.09-.9,4.49-.59,1.38-1.42,2.61-2.46,3.65-1.04,1.04-2.28,1.87-3.67,2.47-1.4,.6-2.91,.9-4.5,.9h-14.44Zm14.27-6.28c.74,0,1.4-.13,2.03-.41,.64-.28,1.21-.66,1.69-1.13,.48-.47,.86-1.03,1.13-1.66,.27-.62,.41-1.3,.41-2.03v-20.99c0-.74-.13-1.4-.41-2.03-.28-.63-.66-1.2-1.14-1.68-.48-.48-1.04-.86-1.68-1.14-.63-.27-1.29-.41-2.03-.41h-7.82v31.47h7.82Z"/>
        <path class="cls-1" d="M339.88,83.67c-.53,1.23-1.25,2.3-2.17,3.23-.92,.92-2,1.65-3.24,2.17-1.24,.53-2.56,.79-3.96,.79h-13.07V48.57h13.07c1.4,0,2.72,.26,3.96,.79,1.24,.53,2.32,1.25,3.24,2.17,.92,.92,1.65,2,2.17,3.24,.53,1.24,.79,2.56,.79,3.96v20.99c0,1.4-.26,2.72-.79,3.94Zm-2.92-24.94c0-.92-.17-1.78-.52-2.58-.35-.8-.82-1.5-1.43-2.1-.6-.6-1.31-1.08-2.1-1.43-.8-.35-1.66-.52-2.58-.52h-9.19v34.21h9.19c.92,0,1.78-.17,2.58-.52,.8-.35,1.5-.82,2.1-1.41,.6-.59,1.08-1.29,1.43-2.09,.35-.8,.52-1.66,.52-2.58v-20.99Z"/>
        <rect class="cls-1" x="348.14" y="47.2" width="6.45" height="44.03"/>
        <path class="cls-1" d="M349.51,89.86V48.57h3.71v41.29h-3.71Z"/>
        <path class="cls-1" d="M371.91,91.81c-1.58,0-3.1-.3-4.52-.9-1.41-.59-2.67-1.42-3.73-2.45-1.07-1.04-1.93-2.26-2.56-3.63-.65-1.4-.98-2.92-.98-4.52v-2.81l6.45-1.05v3.86c0,.72,.14,1.38,.43,2,.3,.64,.71,1.21,1.22,1.69,.51,.48,1.11,.87,1.78,1.15,.67,.28,1.36,.41,2.11,.41h2.59c.74,0,1.43-.13,2.09-.41,.67-.28,1.26-.67,1.77-1.15,.51-.48,.92-1.05,1.22-1.69,.29-.62,.43-1.27,.43-2v-1.24c0-1.17-.22-2.12-.64-2.84-.46-.77-1.08-1.44-1.84-1.99-.83-.59-1.78-1.11-2.83-1.52-1.15-.46-2.34-.91-3.56-1.37-1.26-.47-2.5-1-3.7-1.57-1.28-.61-2.44-1.39-3.45-2.31-1.05-.96-1.91-2.14-2.54-3.51-.64-1.38-.96-3.08-.96-5.04v-.78c0-1.58,.3-3.09,.9-4.49,.59-1.38,1.42-2.61,2.46-3.65,1.04-1.04,2.28-1.87,3.67-2.47,1.4-.6,2.92-.9,4.5-.9h2.65c1.58,0,3.09,.3,4.49,.9,1.38,.59,2.61,1.42,3.65,2.46,1.04,1.04,1.87,2.27,2.46,3.65,.6,1.4,.9,2.9,.9,4.49v2.23l-6.45,1.05v-3.28c0-.74-.13-1.4-.41-2.03-.28-.63-.65-1.19-1.12-1.66-.47-.47-1.03-.85-1.66-1.12-.63-.27-1.29-.41-2.03-.41h-2.3c-.73,0-1.41,.14-2.03,.41-.64,.28-1.21,.66-1.69,1.13-.48,.47-.86,1.03-1.13,1.66-.27,.63-.41,1.29-.41,2.03v.78c0,1.06,.21,1.94,.63,2.62,.46,.74,1.07,1.38,1.84,1.91,.83,.58,1.79,1.09,2.85,1.52,1.16,.47,2.35,.95,3.58,1.44,1.26,.5,2.5,1.06,3.69,1.66,1.27,.64,2.43,1.44,3.44,2.38,1.05,.97,1.9,2.17,2.53,3.56,.64,1.4,.96,3.1,.96,5.06v1.24c0,1.59-.33,3.11-.98,4.52-.63,1.38-1.5,2.6-2.57,3.63-1.07,1.04-2.32,1.86-3.73,2.45-1.42,.6-2.94,.9-4.52,.9h-2.97Z"/>
        <path class="cls-1" d="M385.3,80.3c0,1.4-.28,2.72-.85,3.94-.57,1.23-1.32,2.3-2.27,3.22-.95,.92-2.05,1.65-3.31,2.17-1.26,.53-2.59,.79-3.99,.79h-2.97c-1.4,0-2.73-.26-3.99-.79-1.26-.53-2.36-1.25-3.31-2.17-.95-.92-1.71-2-2.27-3.22-.57-1.23-.85-2.54-.85-3.94v-1.64l3.71-.6v2.25c0,.92,.19,1.78,.56,2.58,.37,.8,.88,1.5,1.51,2.1,.63,.6,1.37,1.08,2.2,1.43s1.71,.52,2.63,.52h2.59c.92,0,1.79-.17,2.62-.52,.82-.35,1.55-.82,2.19-1.43,.63-.6,1.14-1.31,1.51-2.1s.56-1.66,.56-2.58v-1.24c0-1.42-.28-2.6-.84-3.54-.56-.94-1.3-1.74-2.22-2.4s-1.96-1.22-3.12-1.68c-1.16-.46-2.36-.92-3.58-1.38-1.23-.46-2.42-.97-3.58-1.53s-2.2-1.25-3.12-2.09c-.92-.84-1.66-1.86-2.22-3.07-.56-1.21-.84-2.7-.84-4.46v-.78c0-1.4,.26-2.72,.79-3.94,.53-1.23,1.25-2.3,2.17-3.22,.92-.92,2-1.65,3.24-2.17,1.24-.53,2.56-.79,3.96-.79h2.65c1.4,0,2.72,.26,3.94,.79,1.23,.53,2.3,1.25,3.22,2.17,.92,.92,1.65,2,2.17,3.22,.53,1.23,.79,2.54,.79,3.94v1.07l-3.71,.6v-1.67c0-.92-.17-1.78-.52-2.58-.35-.8-.82-1.49-1.41-2.09-.6-.59-1.29-1.07-2.09-1.41-.8-.35-1.66-.52-2.58-.52h-2.3c-.92,0-1.78,.17-2.58,.52-.8,.35-1.5,.82-2.1,1.41-.6,.6-1.08,1.29-1.43,2.09-.35,.8-.52,1.66-.52,2.58v.78c0,1.32,.28,2.44,.84,3.34,.56,.9,1.3,1.68,2.22,2.32,.92,.64,1.96,1.2,3.12,1.67,1.16,.47,2.36,.95,3.58,1.44,1.23,.49,2.42,1.03,3.58,1.61,1.16,.59,2.2,1.31,3.12,2.16,.92,.85,1.66,1.9,2.22,3.12,.56,1.23,.84,2.73,.84,4.49v1.24Z"/>
      </g>
    </g>
  </g>
</svg>